<?xml version="1.0" encoding="UTF-8" standalone="no"?>
<svg
   xmlns:dc="http://purl.org/dc/elements/1.1/"
   xmlns:cc="http://creativecommons.org/ns#"
   xmlns:rdf="http://www.w3.org/1999/02/22-rdf-syntax-ns#"
   xmlns:svg="http://www.w3.org/2000/svg"
   xmlns="http://www.w3.org/2000/svg"
   xmlns:sodipodi="http://sodipodi.sourceforge.net/DTD/sodipodi-0.dtd"
   xmlns:inkscape="http://www.inkscape.org/namespaces/inkscape"
   viewBox="0 0 428.77698 225.61151"
   data-background-color="#ffffff"
   preserveAspectRatio="xMidYMid meet"
   height="225.61151"
   width="428.77698"
   version="1.1"
   id="svg46"
   sodipodi:docname="auctionly_logo.svg"
   inkscape:version="0.92.5 (2060ec1f9f, 2020-04-08)">
  <metadata
     id="metadata50">
    <rdf:RDF>
      <cc:Work
         rdf:about="">
        <dc:format>image/svg+xml</dc:format>
        <dc:type
           rdf:resource="http://purl.org/dc/dcmitype/StillImage" />
        <dc:title></dc:title>
      </cc:Work>
    </rdf:RDF>
  </metadata>
  <sodipodi:namedview
     pagecolor="#ffffff"
     bordercolor="#666666"
     borderopacity="1"
     objecttolerance="10"
     gridtolerance="10"
     guidetolerance="10"
     inkscape:pageopacity="0"
     inkscape:pageshadow="2"
     inkscape:window-width="1920"
     inkscape:window-height="1009"
     id="namedview48"
     showgrid="false"
     fit-margin-top="0"
     fit-margin-left="0"
     fit-margin-right="0"
     fit-margin-bottom="0"
     inkscape:zoom="1.7375"
     inkscape:cx="299.62122"
     inkscape:cy="136.66489"
     inkscape:window-x="768"
     inkscape:window-y="0"
     inkscape:window-maximized="1"
     inkscape:current-layer="svg46" />
  <rect
     width="480.57556"
     height="239.42448"
     x="74.820145"
     y="89.784172"
     data-fill-palette-color="background"
     id="background"
     style="opacity:1;fill:#ffffff;stroke-width:0.67041713"
     clip-path="url(#clipPath62)"
     transform="translate(-103.59712,-89.784172)" />
  <g
     id="tight-bounds"
     transform="translate(18.642878,2.9023679)">
    <svg
       viewBox="0 0 395.52 214.62692"
       height="214.62692"
       width="395.51999"
       version="1.1"
       id="svg39">
      <g
         id="g37">
        <svg
           viewBox="0 0 395.52 214.62692"
           height="214.62692"
           width="395.51999"
           version="1.1"
           id="svg35">
          <g
             id="g31">
            <svg
               viewBox="0 0 395.52 214.62692"
               height="214.62692"
               width="395.51999"
               version="1.1"
               id="svg29">
              <g
                 id="g27">
                <svg
                   viewBox="0 0 395.52 214.62692"
                   height="214.62692"
                   width="395.51999"
                   version="1.1"
                   id="svg25">
                  <g
                     id="g14">
                    <svg
                       viewBox="0 0 395.52 141.56989"
                       height="141.56989"
                       width="395.51999"
                       version="1.1"
                       id="svg12">
                      <g
                         id="g10">
                        <svg
                           width="395.51999"
                           viewBox="2.8000007 -47 203.24998 69.75"
                           height="141.56989"
                           data-palette-color="#f7df46"
                           version="1.1"
                           id="svg8">
                          <svg
                             version="1.1"
                             id="svg3"
                             width="100%"
                             height="100%" />
                          <g
                             class="undefined-text-0"
                             data-fill-palette-color="primary"
                             id="text-0">
                            <path
                               d="m 15,0.25 c -2.3,0 -4.373,-0.567 -6.22,-1.7 C 6.927,-2.583 5.467,-4.227 4.4,-6.38 3.333,-8.527 2.8,-11.067 2.8,-14 v 0 c 0,-5.067 1.083,-9.76 3.25,-14.08 2.167,-4.313 5.367,-7.78 9.6,-10.4 4.233,-2.613 9.317,-3.92 15.25,-3.92 v 0 c 1.533,0 3.177,0.117 4.93,0.35 1.747,0.233 3.337,0.583 4.77,1.05 v 0 c 0.933,0.267 1.4,0.933 1.4,2 v 0 c 0,0.867 -0.323,1.683 -0.97,2.45 -0.653,0.767 -1.413,1.15 -2.28,1.15 v 0 c -0.267,0 -0.467,-0.017 -0.6,-0.05 v 0 c -1.733,-0.4 -3.217,-0.693 -4.45,-0.88 -1.233,-0.18 -2.533,-0.27 -3.9,-0.27 v 0 c -4.233,0 -7.833,1.027 -10.8,3.08 -2.967,2.047 -5.183,4.753 -6.65,8.12 -1.467,3.367 -2.2,7 -2.2,10.9 v 0 c 0,2.833 0.56,5.023 1.68,6.57 1.113,1.553 2.57,2.33 4.37,2.33 v 0 c 2.033,0 3.817,-0.833 5.35,-2.5 1.533,-1.667 2.933,-4.367 4.2,-8.1 1.267,-3.733 2.517,-8.8 3.75,-15.2 v 0 c 0.2,-0.933 0.6,-1.567 1.2,-1.9 0.6,-0.333 1.4,-0.5 2.4,-0.5 v 0 c 2.367,0 3.55,0.767 3.55,2.3 v 0 c 0,0.267 -0.05,0.6 -0.15,1 v 0 c -0.867,3.233 -1.657,6.807 -2.37,10.72 -0.72,3.92 -1.08,6.897 -1.08,8.93 v 0 c 0,1.8 0.267,3.107 0.8,3.92 0.533,0.82 1.35,1.23 2.45,1.23 v 0 c 1.067,0 2.083,-0.36 3.05,-1.08 0.967,-0.713 2.183,-1.937 3.65,-3.67 v 0 c 0.4,-0.467 0.85,-0.7 1.35,-0.7 v 0 c 0.433,0 0.777,0.2 1.03,0.6 0.247,0.4 0.37,0.95 0.37,1.65 v 0 c 0,1.3 -0.317,2.333 -0.95,3.1 v 0 c -1.633,1.967 -3.233,3.467 -4.8,4.5 -1.567,1.033 -3.483,1.55 -5.75,1.55 v 0 c -2.333,0 -4.217,-0.677 -5.65,-2.03 -1.433,-1.347 -2.333,-3.253 -2.7,-5.72 v 0 C 23.433,-2.333 19.8,0.25 15,0.25 Z m 31.8,0 c -1.5,0 -2.723,-0.693 -3.67,-2.08 C 42.177,-3.21 41.7,-4.933 41.7,-7 v 0 c 0,-2.5 0.167,-4.793 0.5,-6.88 0.333,-2.08 0.883,-4.287 1.65,-6.62 v 0 c 0.333,-1 0.8,-1.717 1.4,-2.15 0.6,-0.433 1.55,-0.65 2.85,-0.65 v 0 c 0.733,0 1.243,0.117 1.53,0.35 0.28,0.233 0.42,0.583 0.42,1.05 v 0 c 0,0.267 -0.183,1.167 -0.55,2.7 v 0 c -0.333,1.233 -0.6,2.35 -0.8,3.35 v 0 c -0.667,3.5 -1,5.833 -1,7 v 0 c 0,0.7 0.083,1.19 0.25,1.47 0.167,0.287 0.433,0.43 0.8,0.43 v 0 c 0.5,0 1.127,-0.5 1.88,-1.5 0.747,-1 1.547,-2.517 2.4,-4.55 0.847,-2.033 1.67,-4.533 2.47,-7.5 v 0 c 0.267,-1 0.677,-1.717 1.23,-2.15 0.547,-0.433 1.37,-0.65 2.47,-0.65 v 0 c 0.767,0 1.3,0.09 1.6,0.27 0.3,0.187 0.45,0.53 0.45,1.03 v 0 c 0,0.833 -0.417,3.117 -1.25,6.85 v 0 c -0.933,4.267 -1.4,6.9 -1.4,7.9 v 0 c 0,0.633 0.133,1.123 0.4,1.47 0.267,0.353 0.617,0.53 1.05,0.53 v 0 c 0.667,0 1.46,-0.41 2.38,-1.23 0.913,-0.813 2.137,-2.137 3.67,-3.97 v 0 c 0.4,-0.467 0.85,-0.7 1.35,-0.7 v 0 c 0.433,0 0.777,0.2 1.03,0.6 0.247,0.4 0.37,0.95 0.37,1.65 v 0 c 0,1.333 -0.317,2.367 -0.95,3.1 v 0 c -1.433,1.767 -2.973,3.217 -4.62,4.35 -1.653,1.133 -3.53,1.7 -5.63,1.7 v 0 c -1.6,0 -2.773,-0.617 -3.52,-1.85 C 53.377,-2.833 53,-4.567 53,-6.8 v 0 c -0.567,2.267 -1.417,4.007 -2.55,5.22 -1.133,1.22 -2.35,1.83 -3.65,1.83 z m 27.55,0 c -3.267,0 -5.807,-0.927 -7.62,-2.78 C 64.91,-4.377 64,-6.817 64,-9.85 v 0 c 0,-2.7 0.533,-5.067 1.6,-7.1 1.067,-2.033 2.45,-3.6 4.15,-4.7 1.7,-1.1 3.483,-1.65 5.35,-1.65 v 0 c 1.833,0 3.26,0.54 4.28,1.62 1.013,1.087 1.52,2.48 1.52,4.18 v 0 c 0,1.4 -0.307,2.583 -0.92,3.55 -0.62,0.967 -1.43,1.45 -2.43,1.45 v 0 c -0.633,0 -1.14,-0.15 -1.52,-0.45 -0.387,-0.3 -0.58,-0.717 -0.58,-1.25 v 0 c 0,-0.233 0.033,-0.5 0.1,-0.8 0.067,-0.3 0.117,-0.517 0.15,-0.65 v 0 c 0.167,-0.5 0.25,-0.967 0.25,-1.4 v 0 c 0,-0.433 -0.107,-0.767 -0.32,-1 -0.22,-0.233 -0.53,-0.35 -0.93,-0.35 v 0 c -0.767,0 -1.483,0.34 -2.15,1.02 -0.667,0.687 -1.2,1.613 -1.6,2.78 -0.4,1.167 -0.6,2.45 -0.6,3.85 v 0 c 0,3.867 1.683,5.8 5.05,5.8 v 0 c 1.367,0 2.843,-0.46 4.43,-1.38 1.58,-0.913 3.137,-2.287 4.67,-4.12 v 0 c 0.4,-0.467 0.85,-0.7 1.35,-0.7 v 0 c 0.433,0 0.777,0.2 1.03,0.6 0.247,0.4 0.37,0.95 0.37,1.65 v 0 c 0,1.267 -0.317,2.3 -0.95,3.1 v 0 c -1.567,1.933 -3.44,3.423 -5.62,4.47 -2.187,1.053 -4.297,1.58 -6.33,1.58 z m 31.4,-11.4 c 0.433,0 0.777,0.2 1.03,0.6 0.247,0.4 0.37,0.95 0.37,1.65 v 0 c 0,1.333 -0.317,2.367 -0.95,3.1 v 0 c -1.433,1.767 -3,3.217 -4.7,4.35 -1.7,1.133 -3.65,1.7 -5.85,1.7 v 0 c -6.8,0 -10.2,-4.783 -10.2,-14.35 v 0 c 0,-1.467 0.05,-2.95 0.15,-4.45 v 0 h -1.95 c -1,0 -1.673,-0.183 -2.02,-0.55 -0.353,-0.367 -0.53,-0.95 -0.53,-1.75 v 0 c 0,-1.867 0.75,-2.8 2.25,-2.8 v 0 h 2.85 c 0.567,-3.667 1.433,-7.017 2.6,-10.05 1.167,-3.033 2.577,-5.45 4.23,-7.25 1.647,-1.8 3.42,-2.7 5.32,-2.7 v 0 c 1.4,0 2.5,0.617 3.3,1.85 0.8,1.233 1.2,2.783 1.2,4.65 v 0 c 0,5.167 -2.167,9.667 -6.5,13.5 v 0 h 5.6 c 0.533,0 0.917,0.117 1.15,0.35 0.233,0.233 0.35,0.667 0.35,1.3 v 0 c 0,2.3 -1.883,3.45 -5.65,3.45 v 0 h -6.1 c -0.067,1.667 -0.1,2.967 -0.1,3.9 v 0 c 0,3.467 0.41,5.9 1.23,7.3 0.813,1.4 2.103,2.1 3.87,2.1 v 0 c 1.433,0 2.7,-0.433 3.8,-1.3 1.1,-0.867 2.4,-2.167 3.9,-3.9 v 0 c 0.4,-0.467 0.85,-0.7 1.35,-0.7 z M 97,-38.85 c -0.5,0 -1.057,0.623 -1.67,1.87 -0.62,1.253 -1.203,2.987 -1.75,5.2 -0.553,2.22 -1.013,4.68 -1.38,7.38 v 0 c 1.967,-1.7 3.443,-3.61 4.43,-5.73 0.98,-2.113 1.47,-4.037 1.47,-5.77 v 0 c 0,-1.967 -0.367,-2.95 -1.1,-2.95 z m 12.65,12.25 c -1.4,0 -2.45,-0.327 -3.15,-0.98 -0.7,-0.647 -1.05,-1.553 -1.05,-2.72 v 0 c 0,-1.167 0.46,-2.143 1.38,-2.93 0.913,-0.78 2.053,-1.17 3.42,-1.17 v 0 c 1.233,0 2.233,0.3 3,0.9 0.767,0.6 1.15,1.45 1.15,2.55 v 0 c 0,1.333 -0.433,2.39 -1.3,3.17 -0.867,0.787 -2.017,1.18 -3.45,1.18 z m -0.4,26.85 c -2.167,0 -3.74,-0.767 -4.72,-2.3 -0.987,-1.533 -1.48,-3.567 -1.48,-6.1 v 0 c 0,-1.5 0.193,-3.427 0.58,-5.78 0.38,-2.347 0.87,-4.537 1.47,-6.57 v 0 c 0.3,-1.067 0.7,-1.8 1.2,-2.2 0.5,-0.4 1.3,-0.6 2.4,-0.6 v 0 c 1.7,0 2.55,0.567 2.55,1.7 v 0 c 0,0.833 -0.317,2.767 -0.95,5.8 v 0 c -0.8,3.667 -1.2,6.15 -1.2,7.45 v 0 c 0,1 0.133,1.767 0.4,2.3 0.267,0.533 0.717,0.8 1.35,0.8 v 0 c 0.6,0 1.35,-0.417 2.25,-1.25 0.9,-0.833 2.1,-2.15 3.6,-3.95 v 0 c 0.4,-0.467 0.85,-0.7 1.35,-0.7 v 0 c 0.433,0 0.777,0.2 1.03,0.6 0.247,0.4 0.37,0.95 0.37,1.65 v 0 c 0,1.333 -0.317,2.367 -0.95,3.1 v 0 c -3.3,4.033 -6.383,6.05 -9.25,6.05 z m 31.65,-15.6 c 0.433,0 0.767,0.217 1,0.65 0.233,0.433 0.35,0.983 0.35,1.65 v 0 c 0,1.6 -0.483,2.55 -1.45,2.85 v 0 c -2,0.7 -4.2,1.1 -6.6,1.2 v 0 c -0.633,2.8 -1.883,5.043 -3.75,6.73 -1.867,1.68 -3.983,2.52 -6.35,2.52 v 0 c -2,0 -3.707,-0.483 -5.12,-1.45 -1.42,-0.967 -2.497,-2.25 -3.23,-3.85 -0.733,-1.6 -1.1,-3.333 -1.1,-5.2 v 0 c 0,-2.533 0.483,-4.793 1.45,-6.78 0.967,-1.98 2.3,-3.53 4,-4.65 1.7,-1.113 3.583,-1.67 5.65,-1.67 v 0 c 2.533,0 4.577,0.873 6.13,2.62 1.547,1.753 2.453,3.913 2.72,6.48 v 0 c 1.567,-0.1 3.433,-0.433 5.6,-1 v 0 c 0.267,-0.067 0.5,-0.1 0.7,-0.1 z m -16.4,10.3 c 1.067,0 1.993,-0.433 2.78,-1.3 0.78,-0.867 1.303,-2.117 1.57,-3.75 v 0 c -1.033,-0.7 -1.823,-1.617 -2.37,-2.75 -0.553,-1.133 -0.83,-2.333 -0.83,-3.6 v 0 c 0,-0.533 0.05,-1.067 0.15,-1.6 v 0 h -0.25 c -1.333,0 -2.44,0.64 -3.32,1.92 -0.887,1.287 -1.33,3.097 -1.33,5.43 v 0 c 0,1.833 0.36,3.233 1.08,4.2 0.713,0.967 1.553,1.45 2.52,1.45 z m 17,5.3 c -1.267,0 -2.157,-0.667 -2.67,-2 -0.52,-1.333 -0.78,-3.467 -0.78,-6.4 v 0 c 0,-4.333 0.617,-8.45 1.85,-12.35 v 0 c 0.3,-0.967 0.793,-1.677 1.48,-2.13 0.68,-0.447 1.637,-0.67 2.87,-0.67 v 0 c 0.667,0 1.133,0.083 1.4,0.25 0.267,0.167 0.4,0.483 0.4,0.95 v 0 c 0,0.533 -0.25,1.733 -0.75,3.6 v 0 c -0.333,1.333 -0.6,2.5 -0.8,3.5 -0.2,1 -0.367,2.233 -0.5,3.7 v 0 c 1.1,-2.867 2.333,-5.2 3.7,-7 1.367,-1.8 2.71,-3.083 4.03,-3.85 1.313,-0.767 2.52,-1.15 3.62,-1.15 v 0 c 2.167,0 3.25,1.083 3.25,3.25 v 0 c 0,1.3 -0.367,3.65 -1.1,7.05 v 0 c -0.633,2.9 -0.95,4.817 -0.95,5.75 v 0 c 0,1.333 0.483,2 1.45,2 v 0 c 0.667,0 1.46,-0.41 2.38,-1.23 0.913,-0.813 2.137,-2.137 3.67,-3.97 v 0 c 0.4,-0.467 0.85,-0.7 1.35,-0.7 v 0 c 0.433,0 0.777,0.2 1.03,0.6 0.247,0.4 0.37,0.95 0.37,1.65 v 0 c 0,1.333 -0.317,2.367 -0.95,3.1 v 0 c -1.433,1.767 -2.973,3.217 -4.62,4.35 -1.653,1.133 -3.53,1.7 -5.63,1.7 v 0 c -1.7,0 -2.983,-0.493 -3.85,-1.48 -0.867,-0.98 -1.3,-2.403 -1.3,-4.27 v 0 c 0,-0.933 0.233,-2.6 0.7,-5 v 0 c 0.433,-2.1 0.65,-3.55 0.65,-4.35 v 0 c 0,-0.533 -0.183,-0.8 -0.55,-0.8 v 0 c -0.433,0 -1.04,0.557 -1.82,1.67 -0.787,1.12 -1.587,2.597 -2.4,4.43 -0.82,1.833 -1.48,3.767 -1.98,5.8 v 0 c -0.367,1.567 -0.79,2.623 -1.27,3.17 -0.487,0.553 -1.247,0.83 -2.28,0.83 z m 40.2,-11.4 c 0.433,0 0.777,0.2 1.03,0.6 0.247,0.4 0.37,0.95 0.37,1.65 v 0 c 0,1.333 -0.317,2.367 -0.95,3.1 v 0 c -1.433,1.767 -2.99,3.217 -4.67,4.35 -1.687,1.133 -3.597,1.7 -5.73,1.7 v 0 c -2.933,0 -5.107,-1.333 -6.52,-4 -1.42,-2.667 -2.13,-6.117 -2.13,-10.35 v 0 c 0,-4.067 0.527,-8.7 1.58,-13.9 1.047,-5.2 2.597,-9.667 4.65,-13.4 2.047,-3.733 4.487,-5.6 7.32,-5.6 v 0 c 1.6,0 2.86,0.74 3.78,2.22 0.913,1.487 1.37,3.613 1.37,6.38 v 0 c 0,3.967 -1.1,8.567 -3.3,13.8 -2.2,5.233 -5.183,10.417 -8.95,15.55 v 0 c 0.233,1.367 0.617,2.34 1.15,2.92 0.533,0.587 1.233,0.88 2.1,0.88 v 0 c 1.367,0 2.567,-0.393 3.6,-1.18 1.033,-0.78 2.35,-2.12 3.95,-4.02 v 0 c 0.4,-0.467 0.85,-0.7 1.35,-0.7 z m -6.15,-30.9 c -0.767,0 -1.633,1.383 -2.6,4.15 -0.967,2.767 -1.817,6.2 -2.55,10.3 -0.733,4.1 -1.133,8.033 -1.2,11.8 v 0 c 2.367,-3.9 4.25,-7.81 5.65,-11.73 1.4,-3.913 2.1,-7.487 2.1,-10.72 v 0 c 0,-2.533 -0.467,-3.8 -1.4,-3.8 z m 29.1,31 c 0.433,0 0.777,0.207 1.03,0.62 0.247,0.42 0.37,0.947 0.37,1.58 v 0 c 0,0.767 -0.117,1.367 -0.35,1.8 -0.233,0.433 -0.6,0.817 -1.1,1.15 v 0 L 195,0.55 c -1.267,6.9 -2.923,12.323 -4.97,16.27 -2.053,3.953 -4.663,5.93 -7.83,5.93 v 0 c -1.7,0 -3.083,-0.523 -4.15,-1.57 -1.067,-1.053 -1.6,-2.43 -1.6,-4.13 v 0 c 0,-1.567 0.36,-3.167 1.08,-4.8 0.713,-1.633 2.047,-3.507 4,-5.62 1.947,-2.12 4.703,-4.547 8.27,-7.28 v 0 l 0.15,-1.15 c 0.233,-1.233 0.5,-3 0.8,-5.3 v 0 c -0.667,2.4 -1.6,4.223 -2.8,5.47 -1.2,1.253 -2.467,1.88 -3.8,1.88 v 0 c -1.5,0 -2.723,-0.693 -3.67,-2.08 -0.953,-1.38 -1.43,-3.103 -1.43,-5.17 v 0 c 0,-2.5 0.167,-4.793 0.5,-6.88 0.333,-2.08 0.883,-4.287 1.65,-6.62 v 0 c 0.333,-1 0.8,-1.717 1.4,-2.15 0.6,-0.433 1.55,-0.65 2.85,-0.65 v 0 c 0.733,0 1.243,0.117 1.53,0.35 0.28,0.233 0.42,0.583 0.42,1.05 v 0 c 0,0.267 -0.183,1.167 -0.55,2.7 v 0 c -0.333,1.233 -0.6,2.35 -0.8,3.35 v 0 c -0.267,1.367 -0.5,2.673 -0.7,3.92 -0.2,1.253 -0.3,2.28 -0.3,3.08 v 0 c 0,1.267 0.35,1.9 1.05,1.9 v 0 c 0.5,0 1.127,-0.5 1.88,-1.5 0.747,-1 1.547,-2.517 2.4,-4.55 0.847,-2.033 1.67,-4.533 2.47,-7.5 v 0 c 0.267,-1 0.677,-1.717 1.23,-2.15 0.547,-0.433 1.37,-0.65 2.47,-0.65 v 0 c 0.767,0 1.3,0.1 1.6,0.3 0.3,0.2 0.45,0.533 0.45,1 v 0 c 0,0.833 -0.433,3.7 -1.3,8.6 v 0 l -1.3,8.05 c 2.567,-1.933 5.067,-3.7 7.5,-5.3 v 0 c 0.433,-0.267 0.817,-0.4 1.15,-0.4 z m -21.9,28.95 c 0.833,0 1.767,-0.967 2.8,-2.9 1.033,-1.933 2.067,-5.15 3.1,-9.65 v 0 c -2.567,2.167 -4.423,4.143 -5.57,5.93 -1.153,1.78 -1.73,3.337 -1.73,4.67 v 0 c 0,0.567 0.11,1.033 0.33,1.4 0.213,0.367 0.57,0.55 1.07,0.55 z"
                               data-fill-palette-color="primary"
                               id="path5"
                               inkscape:connector-curvature="0"
                               style="opacity:1;fill:#f7df46" />
                          </g>
                        </svg>
                      </g>
                    </svg>
                  </g>
                  <g
                     transform="translate(163.31021,173.61295)"
                     id="g23">
                    <svg
                       viewBox="0 0 232.20979 41.013974"
                       height="41.013973"
                       width="232.20979"
                       version="1.1"
                       id="svg21">
                      <g
                         id="g19">
                        <svg
                           width="232.20979"
                           viewBox="0 -38.23 298.25 52.68"
                           height="41.013973"
                           data-palette-color="#e8ab76"
                           version="1.1"
                           id="svg17">
                          <path
                             d="m 11.38,-35.4 v 0 l 3.71,0.24 q 1.37,6.06 5.61,17.12 4.25,11.06 5.62,16.53 v 0 q 0,1.41 -0.49,2.12 -0.49,0.71 -1.22,0.71 v 0 q -0.64,0 -1.2,-0.51 -0.56,-0.52 -0.75,-1.44 v 0 q -0.44,-2.15 -2.84,-8.6 v 0 Q 9.77,-10.5 7.18,-10.79 v 0 Q 6.54,-9.03 5.62,-5.08 4.69,-1.12 4.15,0.39 v 0 Q 3.42,1.27 2.49,1.27 v 0 Q 1.46,1.27 0.73,0.37 0,-0.54 0,-1.86 v 0 q 1.56,-5.71 5.66,-16.79 4.11,-11.09 5.72,-16.75 z m 1.71,4.93 v 0 q -0.98,5.91 -5.42,17.34 v 0 h 5.46 q 3.72,0 6.21,0.24 v 0 q -5.03,-10.79 -6.25,-17.58 z m 31.63,6.25 v 0 l -0.24,2.1 q -2.05,-0.29 -3.52,-0.29 v 0 q -3.36,0 -5.56,2.02 -2.2,2.03 -3.01,4.79 -0.8,2.76 -0.8,6.13 v 0 q 0,1.56 0.19,2.78 0.2,1.22 0.71,2.39 0.52,1.17 1.61,1.83 1.1,0.66 2.71,0.66 v 0 q 2.15,0 5.47,-0.83 v 0 q 1.03,-0.39 1.61,-0.39 v 0 q 1.18,0 1.42,2.74 v 0 q -4.3,1.36 -7.96,1.36 v 0 q -5.32,0 -7.2,-2.61 -1.88,-2.61 -1.88,-8.47 v 0 q 0,-3.42 0.46,-5.98 0.47,-2.56 1.64,-4.79 1.17,-2.22 3.39,-3.39 2.22,-1.17 5.45,-1.17 v 0 q 3.61,0 5.51,1.12 z m 16.41,0.59 v 0 l 0.53,2.19 q -1.31,0.1 -4.05,0.52 -2.73,0.41 -4.1,0.51 v 0 q 0.24,1.71 0.29,4.49 0.05,2.79 0.13,4.81 0.07,2.03 0.44,4.05 0.36,2.03 1.51,3.1 1.15,1.08 3.1,1.08 v 0 q 1.46,0 3.66,-0.68 v 0 q 0.93,1.8 1.37,2.63 v 0 Q 60.15,0.44 56.2,0.44 v 0 q -1.47,0 -2.54,-0.88 -1.08,-0.88 -1.66,-2.2 -0.59,-1.32 -0.96,-3.34 -0.36,-2.03 -0.46,-3.83 -0.1,-1.81 -0.1,-4.15 v 0 q 0,-1.27 0.03,-3.52 0.02,-2.25 0.02,-3.08 v 0 q -0.49,0.05 -2.29,0.08 -1.81,0.02 -2.1,0.02 v 0 q -0.34,-3.27 -0.34,-3.37 v 0 q 0.34,0.1 1.12,0.1 v 0 q 0.44,0 1.41,-0.07 0.98,-0.08 1.47,-0.08 v 0 q 0.2,0 0.51,0.03 0.32,0.02 0.42,0.02 v 0 q 0.19,-5.37 0.44,-8.74 v 0 l 2.19,0.54 q 0.05,1.17 0.08,2.51 0.02,1.35 0.05,2.98 0.02,1.64 0.02,2.52 v 0 q 1.27,0.09 3.81,0.19 2.54,0.1 3.81,0.2 z m 17.57,-0.88 v 0 l 2.35,0.44 v 0.49 q 0,3.32 0.41,11.23 0.42,7.91 0.76,12.2 v 0 q -0.98,0.39 -1.86,0.39 v 0 Q 79.58,0.24 78.61,0 v 0 l -0.39,-1.27 q -3.13,1.76 -5.96,1.76 v 0 q -2.1,0 -3.64,-0.98 -1.54,-0.97 -2.37,-2.42 -0.83,-1.44 -1.32,-3.56 -0.48,-2.12 -0.61,-3.86 -0.12,-1.73 -0.12,-3.88 v 0 q 0,-6.25 0.78,-11.47 v 0 l 2.2,0.48 q 0.34,1.62 0.34,3.52 v 0 q 0,1.07 -0.12,3.71 -0.12,2.64 -0.12,4.01 v 0 q 0,2.39 0.22,4.12 0.22,1.73 0.83,3.37 0.61,1.64 1.88,2.51 1.27,0.88 3.17,0.88 v 0 q 2.15,0 4.64,-0.97 v 0 q 0.1,-1.81 0.2,-9.26 0.09,-7.44 0.48,-11.2 z m 9.23,3.42 v 0 l -0.98,-2.49 q 1.27,-1.27 3.23,-2.03 1.95,-0.76 3.85,-0.76 v 0 q 8.25,0 8.25,14.26 v 0 q 0,1.95 -0.21,5.76 -0.22,3.81 -0.22,5.72 v 0 q -0.4,1.51 -1.52,1.51 v 0 Q 99.45,0.88 98.72,0 97.99,-0.88 97.99,-1.95 v 0 q 0,-0.34 0.05,-0.49 v 0 q -3.03,2.93 -6.45,2.93 v 0 q -2.59,0 -4.52,-1.88 -1.92,-1.88 -1.92,-4.57 v 0 q 0,-4.54 3.54,-8.2 3.54,-3.66 8.03,-3.66 v 0 q 0.19,0 0.39,0.02 0.19,0.03 0.46,0.08 0.27,0.04 0.42,0.04 v 0 q -0.39,-5.71 -4.54,-5.71 v 0 q -2.44,0 -5.52,2.3 z m 10.2,15.28 v 0 q 0.1,-3.42 0.1,-5.18 v 0 q 0,-1.46 -0.1,-4.1 v 0 h -0.39 q -3.46,0.05 -6.32,2.59 -2.86,2.54 -2.86,6.15 v 0 q 0,1.56 0.96,2.49 0.95,0.93 2.32,0.93 v 0 q 2.14,0 6.29,-2.88 z m 8.11,3.47 1.07,-31.16 2.25,0.49 1.07,31.59 q -0.44,1.52 -1.71,1.52 v 0 q -0.88,0 -1.68,-0.71 -0.81,-0.71 -1,-1.73 z m 8.39,0 1.08,-31.16 2.24,0.49 1.08,31.59 q -0.44,1.52 -1.71,1.52 v 0 q -0.88,0 -1.69,-0.71 -0.8,-0.71 -1,-1.73 z m 11.92,16.79 v 0 l -3.03,-1.71 q 2,-3.46 7.08,-13.18 v 0 q -3.96,-3.52 -6.06,-10.64 -2.1,-7.13 -2.54,-14.26 v 0 l 2.84,0.14 q 0.24,1.18 1.05,5.35 0.8,4.18 1.29,6.18 0.49,2 1.73,5 1.25,3.01 2.86,5.06 v 0 q 6.79,-13.04 6.79,-21.39 v 0 -0.54 q 2.54,0.39 3.81,0.93 v 0 q -0.79,5.13 -2.45,10.45 -1.66,5.32 -4.15,10.72 -2.49,5.39 -4.42,9.06 -1.92,3.66 -4.8,8.83 z m 47.79,-49.61 v 0 l 2.93,0.15 q -0.05,0.1 -3.81,15.77 -3.76,15.68 -5.12,19.19 v 0 q -0.49,0.1 -0.98,0.1 v 0 q -1.37,0 -3.08,-0.34 v 0 q -0.73,-2.2 -1.68,-6.01 -0.95,-3.81 -1.98,-8.45 -1.02,-4.63 -1.78,-8.22 -0.76,-3.59 -1.59,-7.69 -0.83,-4.11 -0.92,-4.5 v 0 h 2.78 q 1.95,8.99 7.03,28.81 v 0 q 7.52,-27.44 8.2,-28.81 z m 4.44,14.07 v 0 l -0.97,-2.49 q 1.27,-1.27 3.22,-2.03 1.95,-0.76 3.86,-0.76 v 0 q 8.25,0 8.25,14.26 v 0 q 0,1.95 -0.22,5.76 -0.22,3.81 -0.22,5.72 v 0 q -0.39,1.51 -1.51,1.51 v 0 q -0.88,0 -1.62,-0.88 -0.73,-0.88 -0.73,-1.95 v 0 q 0,-0.34 0.05,-0.49 v 0 q -3.03,2.93 -6.44,2.93 v 0 q -2.59,0 -4.52,-1.88 Q 176,-3.27 176,-5.96 v 0 q 0,-4.54 3.54,-8.2 3.54,-3.66 8.03,-3.66 v 0 q 0.2,0 0.39,0.02 0.2,0.03 0.47,0.08 0.27,0.04 0.41,0.04 v 0 q -0.39,-5.71 -4.54,-5.71 v 0 q -2.44,0 -5.52,2.3 z m 10.21,15.28 v 0 q 0.1,-3.42 0.1,-5.18 v 0 q 0,-1.46 -0.1,-4.1 v 0 h -0.39 q -3.47,0.05 -6.33,2.59 -2.85,2.54 -2.85,6.15 v 0 q 0,1.56 0.95,2.49 0.95,0.93 2.32,0.93 v 0 q 2.15,0 6.3,-2.88 z m 8.1,3.47 1.08,-31.16 2.24,0.49 1.08,31.59 q -0.44,1.52 -1.71,1.52 v 0 q -0.88,0 -1.69,-0.71 -0.8,-0.71 -1,-1.73 z m 22.9,-22.17 v 0 l 2.34,0.44 v 0.49 q 0,3.32 0.42,11.23 0.41,7.91 0.76,12.2 v 0 q -0.98,0.39 -1.86,0.39 v 0 q -0.78,0 -1.76,-0.24 v 0 l -0.39,-1.27 q -3.12,1.76 -5.96,1.76 v 0 q -2.1,0 -3.63,-0.98 -1.54,-0.97 -2.37,-2.42 -0.83,-1.44 -1.32,-3.56 -0.49,-2.12 -0.61,-3.86 -0.12,-1.73 -0.12,-3.88 v 0 q 0,-6.25 0.78,-11.47 v 0 l 2.2,0.48 q 0.34,1.62 0.34,3.52 v 0 q 0,1.07 -0.12,3.71 -0.13,2.64 -0.13,4.01 v 0 q 0,2.39 0.22,4.12 0.22,1.73 0.83,3.37 0.61,1.64 1.88,2.51 1.27,0.88 3.18,0.88 v 0 q 2.15,0 4.64,-0.97 v 0 q 0.09,-1.81 0.19,-9.26 0.1,-7.44 0.49,-11.2 z m 9.23,3.42 v 0 l -0.98,-2.49 q 1.27,-1.27 3.22,-2.03 1.95,-0.76 3.86,-0.76 v 0 q 8.25,0 8.25,14.26 v 0 q 0,1.95 -0.22,5.76 -0.22,3.81 -0.22,5.72 v 0 q -0.39,1.51 -1.51,1.51 v 0 q -0.88,0 -1.61,-0.88 -0.74,-0.88 -0.74,-1.95 v 0 q 0,-0.34 0.05,-0.49 v 0 q -3.02,2.93 -6.44,2.93 v 0 q -2.59,0 -4.52,-1.88 -1.93,-1.88 -1.93,-4.57 v 0 q 0,-4.54 3.54,-8.2 3.54,-3.66 8.03,-3.66 v 0 q 0.2,0 0.4,0.02 0.19,0.03 0.46,0.08 0.27,0.04 0.41,0.04 v 0 q -0.39,-5.71 -4.54,-5.71 v 0 q -2.44,0 -5.51,2.3 z m 10.2,15.28 v 0 q 0.1,-3.42 0.1,-5.18 v 0 q 0,-1.46 -0.1,-4.1 v 0 h -0.39 q -3.47,0.05 -6.32,2.59 -2.86,2.54 -2.86,6.15 v 0 q 0,1.56 0.95,2.49 0.95,0.93 2.32,0.93 v 0 q 2.15,0 6.3,-2.88 z m 11.42,6.74 v 0 l -2.73,0.53 -0.59,-38.57 q 1.37,-0.68 3.71,-1.12 v 0 q -0.04,1.12 -0.04,3.51 v 0 q 0,5.28 0.39,10.45 v 0 q 2.34,-1.32 4.98,-1.32 v 0 q 2.73,0 4.64,1.3 1.9,1.29 2.83,3.54 0.93,2.24 1.32,4.54 0.39,2.29 0.39,4.98 v 0 q 0,2.93 -0.91,5.64 -0.9,2.71 -3.12,4.74 -2.22,2.02 -5.4,2.02 v 0 q -2.73,0 -5.42,-1.71 v 0 q -0.05,0.49 -0.05,1.47 z m 0.59,-20.41 v 0 l -0.15,15.72 q 0.3,0.88 1.83,1.39 1.54,0.51 3.35,0.51 v 0 q 1.71,0 2.86,-0.65 1.14,-0.66 1.73,-1.91 0.58,-1.24 0.8,-2.61 0.22,-1.37 0.22,-3.13 v 0 q 0,-1.8 -0.19,-3.54 -0.2,-1.73 -0.78,-3.8 -0.59,-2.08 -1.91,-3.35 -1.31,-1.27 -3.27,-1.27 v 0 q -1.41,0 -2.66,0.71 -1.24,0.71 -1.83,1.93 z m 18.26,17.14 1.07,-31.16 2.25,0.49 1.07,31.59 q -0.44,1.52 -1.71,1.52 v 0 q -0.87,0 -1.68,-0.71 -0.81,-0.71 -1,-1.73 z m 28.07,-2.4 v 0 l 0.49,2.15 q -2.15,0.78 -6.37,1.74 -4.22,0.95 -6.28,0.95 v 0 q -2.1,0 -3.66,-1.39 -1.56,-1.4 -2.34,-3.57 -0.78,-2.17 -1.15,-4.3 -0.36,-2.12 -0.36,-4.17 v 0 q 0,-12.21 11.03,-12.21 v 0 q 2.64,0 4.64,1.69 2,1.68 2,4.37 v 0 q 0,1.46 -0.8,2.59 -0.81,1.12 -1.96,1.78 -1.15,0.66 -2.93,1.19 -1.78,0.54 -3.15,0.79 -1.36,0.24 -3.27,0.53 -1.9,0.3 -2.64,0.44 v 0 q 0.05,1.42 0.18,2.49 0.12,1.08 0.48,2.32 0.37,1.25 0.98,2.05 0.61,0.81 1.69,1.34 1.07,0.54 2.53,0.54 v 0 q 1.76,0 4.3,-0.32 2.54,-0.31 4.52,-0.65 1.98,-0.35 2.07,-0.35 z m -16.55,-10.45 v 0 q 6.64,-1.9 10.89,-4 v 0 q -0.34,-1.61 -0.93,-2.34 -0.58,-0.74 -1.76,-0.74 v 0 q -2.98,0 -5.39,2.06 -2.42,2.05 -2.81,5.02 z"
                             class="undefined-text-1"
                             data-fill-palette-color="secondary"
                             id="text-1"
                             inkscape:connector-curvature="0"
                             style="opacity:1;fill:#e8ab76" />
                        </svg>
                      </g>
                    </svg>
                  </g>
                </svg>
              </g>
            </svg>
          </g>
          <g
             id="g33" />
        </svg>
      </g>
    </svg>
    <rect
       width="395.51999"
       height="214.62692"
       visibility="hidden"
       id="rect41"
       x="0"
       y="0"
       style="visibility:hidden;fill:none;stroke:none" />
  </g>
  <defs
     id="defs44">
    <clipPath
       clipPathUnits="userSpaceOnUse"
       id="clipPath62">
      <rect
         style="opacity:0.44580012;fill:#000000"
         id="rect64"
         width="428.77698"
         height="235.39569"
         x="103.59712"
         y="80" />
    </clipPath>
  </defs>
</svg>
